<svg width="40" height="40" viewBox="0 0 40 40" fill="none" xmlns="http://www.w3.org/2000/svg">
<g clip-path="url(#clip0_2_52)">
<rect width="40" height="40" rx="20" fill="url(#paint0_linear_2_52)"/>
<mask id="mask0_2_52" style="mask-type:alpha" maskUnits="userSpaceOnUse" x="7" y="7" width="26" height="26">
<path d="M16.8181 15.4038L16.9392 16.494C17.0896 17.8481 17.6965 19.1106 18.6598 20.074L19.926 21.3402C20.8894 22.3036 22.152 22.9104 23.5061 23.0609L24.5962 23.182L19.2929 28.4853C17.145 30.6332 13.6626 30.6332 11.5148 28.4853C9.36687 26.3374 9.36687 22.855 11.5148 20.7071L16.8181 15.4038Z" fill="black"/>
<path d="M20.7072 11.5146C22.8551 9.36679 26.3374 9.36675 28.4853 11.5146C30.6333 13.6624 30.6333 17.1449 28.4854 19.2928L24.5962 23.182L23.5061 23.061C22.1518 22.9107 20.8889 22.3038 19.9254 21.3403L18.6596 20.0745C17.6962 19.111 17.0893 17.8483 16.9389 16.4941L16.8179 15.404L20.7072 11.5146Z" fill="url(#paint1_linear_2_52)"/>
</mask>
<g mask="url(#mask0_2_52)">
<path d="M8 8H32V32H8V8Z" fill="white"/>
</g>
</g>
<defs>
<linearGradient id="paint0_linear_2_52" x1="0" y1="0" x2="40" y2="40" gradientUnits="userSpaceOnUse">
<stop stop-color="#83D875"/>
<stop offset="1" stop-color="#58AD4A"/>
</linearGradient>
<linearGradient id="paint1_linear_2_52" x1="23.4999" y1="23.5001" x2="18.6561" y2="13.9592" gradientUnits="userSpaceOnUse">
<stop stop-opacity="0.5"/>
<stop offset="1" stop-opacity="0.3"/>
</linearGradient>
<clipPath id="clip0_2_52">
<rect width="40" height="40" rx="20" fill="white"/>
</clipPath>
</defs>
</svg>
