<svg width="40" height="40" viewBox="0 0 40 40" fill="none" xmlns="http://www.w3.org/2000/svg">
<g clip-path="url(#clip0_2_72)">
<rect width="40" height="40" rx="20" fill="url(#paint0_linear_2_72)"/>
<mask id="mask0_2_72" style="mask-type:alpha" maskUnits="userSpaceOnUse" x="8" y="11" width="25" height="15">
<path fill-rule="evenodd" clip-rule="evenodd" d="M10.8683 13.4122C10.3322 13.0548 9.62405 13.4924 9.70397 14.1318L9.85878 15.3702C9.94976 16.098 9.76411 16.8302 9.40616 17.4704C8.98711 18.2199 8.5 19.252 8.5 19.9999V20.499C8.5 22.7081 10.2909 24.4999 12.5 24.4999H14.5H26.6149C28.6594 24.4999 30.4979 23.2552 31.2572 21.3569L31.3165 21.2087C31.7028 20.2429 31.2844 19.1422 30.354 18.677L25.9999 16.5L22.338 17.5986C21.4716 17.8585 20.5428 17.8171 19.703 17.4812L16 16L20.8148 13.1111L18 11L14.1545 13.4471C13.1488 14.0871 11.8602 14.0734 10.8683 13.4122Z" fill="url(#paint1_linear_2_72)"/>
<path d="M12.5 20.5C11.4429 20.3238 10.6341 20.3339 10.0299 20.4208C8.97984 20.5719 8.5 21.596 8.5 22.6569V23C8.5 24.6568 9.84315 26 11.5 26H27.728C29.5 26 31.3242 24.8078 31.8455 22.4119C32 21.702 32.1 20 31.4 20C30.6187 20 31.4911 21.7506 28 22C21 22.5001 15.5 21 12.5 20.5Z" fill="black"/>
<path d="M22.5 14C23.1096 13.6952 23.8408 13.7727 24.373 14.1985L25.2494 14.8996C25.7238 15.2791 26 15.8537 26 16.4613V16.5L22.338 17.5987C21.4716 17.8585 20.5428 17.8172 19.703 17.4813L18 16.8L22.5 14Z" fill="black"/>
</mask>
<g mask="url(#mask0_2_72)">
<path d="M8 8H32V32H8V8Z" fill="white"/>
</g>
</g>
<defs>
<linearGradient id="paint0_linear_2_72" x1="58.9155" y1="19.6885" x2="19.741" y2="-19.5872" gradientUnits="userSpaceOnUse">
<stop stop-color="#2077DF"/>
<stop offset="1" stop-color="#8BD5FF"/>
</linearGradient>
<linearGradient id="paint1_linear_2_72" x1="8.5" y1="11" x2="31.778" y2="23.9273" gradientUnits="userSpaceOnUse">
<stop stop-opacity="0.6"/>
<stop offset="1" stop-opacity="0.4"/>
</linearGradient>
<clipPath id="clip0_2_72">
<rect width="40" height="40" rx="20" fill="white"/>
</clipPath>
</defs>
</svg>
