<svg width="40" height="40" viewBox="0 0 40 40" fill="none" xmlns="http://www.w3.org/2000/svg">
<g clip-path="url(#clip0_1_1629)">
<rect width="40" height="40" rx="20" fill="url(#paint0_linear_1_1629)"/>
<mask id="mask0_1_1629" style="mask-type:alpha" maskUnits="userSpaceOnUse" x="8" y="13" width="24" height="14">
<path fill-rule="evenodd" clip-rule="evenodd" d="M16 13C14.8954 13 14 13.8954 14 15V20H10C8.89543 20 8 20.8954 8 22V27H13C13.5523 27 14 26.5523 14 26V20H20V27H24C25.1046 27 26 26.1046 26 25V20H30C31.1046 20 32 19.1046 32 18V13H27C26.4477 13 26 13.4477 26 14V20H20V13H16Z" fill="black"/>
</mask>
<g mask="url(#mask0_1_1629)">
<path d="M8 8H32V32H8V8Z" fill="white"/>
</g>
</g>
<defs>
<linearGradient id="paint0_linear_1_1629" x1="-20" y1="20" x2="20" y2="60" gradientUnits="userSpaceOnUse">
<stop stop-color="#FFDF6D"/>
<stop offset="0.828125" stop-color="#EFAA24"/>
</linearGradient>
<clipPath id="clip0_1_1629">
<rect width="40" height="40" rx="20" fill="white"/>
</clipPath>
</defs>
</svg>
